/vscmnt/brussel_pixiu_data/_data_brussel/112/vsc11236/PredSimResults/SUBJ07_Dhondt2024_3seg/weighted-LRposFixed/worker_02.mot
version=1
nRows=4
nColumns=124
inDegrees=yes
endheader
                time	         pelvis_tilt	         pelvis_list	     pelvis_rotation	           pelvis_tx	           pelvis_ty	           pelvis_tz	       hip_flexion_r	     hip_adduction_r	      hip_rotation_r	        knee_angle_r	       ankle_angle_r	    subtalar_angle_r	         mtp_angle_r	       hip_flexion_l	     hip_adduction_l	      hip_rotation_l	        knee_angle_l	       ankle_angle_l	    subtalar_angle_l	         mtp_angle_l	    lumbar_extension	      lumbar_bending	     lumbar_rotation	          arm_flex_r	           arm_add_r	           arm_rot_r	        elbow_flex_r	          arm_flex_l	           arm_add_l	           arm_rot_l	        elbow_flex_l	glut_med1_r/activation	glut_med2_r/activation	glut_med3_r/activation	glut_min1_r/activation	glut_min2_r/activation	glut_min3_r/activation	semimem_r/activation	semiten_r/activation	bifemlh_r/activation	bifemsh_r/activation	    sar_r/activation	add_long_r/activation	add_brev_r/activation	add_mag1_r/activation	add_mag2_r/activation	add_mag3_r/activation	    tfl_r/activation	   pect_r/activation	   grac_r/activation	glut_max1_r/activation	glut_max2_r/activation	glut_max3_r/activation	iliacus_r/activation	  psoas_r/activation	quad_fem_r/activation	    gem_r/activation	   peri_r/activation	rect_fem_r/activation	vas_med_r/activation	vas_int_r/activation	vas_lat_r/activation	med_gas_r/activation	lat_gas_r/activation	 soleus_r/activation	tib_post_r/activation	flex_dig_r/activation	flex_hal_r/activation	tib_ant_r/activation	per_brev_r/activation	per_long_r/activation	per_tert_r/activation	ext_dig_r/activation	ext_hal_r/activation	glut_med1_l/activation	glut_med2_l/activation	glut_med3_l/activation	glut_min1_l/activation	glut_min2_l/activation	glut_min3_l/activation	semimem_l/activation	semiten_l/activation	bifemlh_l/activation	bifemsh_l/activation	    sar_l/activation	add_long_l/activation	add_brev_l/activation	add_mag1_l/activation	add_mag2_l/activation	add_mag3_l/activation	    tfl_l/activation	   pect_l/activation	   grac_l/activation	glut_max1_l/activation	glut_max2_l/activation	glut_max3_l/activation	iliacus_l/activation	  psoas_l/activation	quad_fem_l/activation	    gem_l/activation	   peri_l/activation	rect_fem_l/activation	vas_med_l/activation	vas_int_l/activation	vas_lat_l/activation	med_gas_l/activation	lat_gas_l/activation	 soleus_l/activation	tib_post_l/activation	flex_dig_l/activation	flex_hal_l/activation	tib_ant_l/activation	per_brev_l/activation	per_long_l/activation	per_tert_l/activation	ext_dig_l/activation	ext_hal_l/activation	 ercspn_r/activation	 ercspn_l/activation	 intobl_r/activation	 intobl_l/activation	 extobl_r/activation	 extobl_l/activation	
          0.98398368	         -2.92479778	         -0.58580797	          2.27247471	          1.26933895	          0.84737220	         -0.00137103	         28.19943083	          2.46897833	          2.27136304	        -10.96603609	          9.30838920	         -1.74301410	          0.23555512	        -17.42888235	          0.80308751	          8.61416063	         -6.07338543	          3.46551560	         12.83209473	         15.37674990	         -6.95353187	         -0.11481159	         -1.45554719	        -22.65759491	        -14.65793242	         -1.21579073	         48.31096827	         16.90939496	        -13.80833762	         19.09675671	         46.93406501	          0.01354578	          0.01336999	          0.01163678	          0.01000453	          0.01000541	          0.01001088	          0.23367134	          0.06261333	          0.01167177	          0.01000413	          0.01577329	          0.05318334	          0.12250372	          0.09587848	          0.10603026	          0.10022498	          0.01000361	          0.01747836	          0.04693455	          0.01451932	          0.01641445	          0.06227844	          0.01446992	          0.01374036	          0.01508118	          0.01004016	          0.01000582	          0.01000099	          0.09367574	          0.09653839	          0.08069288	          0.01163940	          0.01163787	          0.01163993	          0.01000670	          0.01000981	          0.01004239	          0.27492553	          0.21704821	          0.13736375	          0.09197105	          0.31470693	          0.04054192	          0.16138976	          0.08321128	          0.05442756	          0.23453624	          0.19617952	          0.13442796	          0.01156424	          0.01002829	          0.01001376	          0.03704835	          0.08757725	          0.01000749	          0.01000179	          0.01000368	          0.01001386	          0.01001005	          0.39029806	          0.01003518	          0.01001602	          0.01582695	          0.01568926	          0.01002594	          0.21944743	          0.41955954	          0.01576940	          0.01578448	          0.05498526	          0.30216694	          0.01000210	          0.01000257	          0.01000204	          0.31198944	          0.35465232	          0.26884773	          0.27207947	          0.34787967	          0.42971735	          0.01621366	          0.09793894	          0.20668216	          0.01396476	          0.01416127	          0.01686896	          0.01640766	          0.01000007	          0.03096388	          0.01000123	          0.09916363	          0.01000074	
          0.99382352	         -2.91751610	         -0.88563695	          2.44268734	          1.28435328	          0.84678616	         -0.00115487	         27.58971557	          2.96492990	          2.30989393	        -10.81325929	          8.43554249	         -1.82370644	          0.24016679	        -17.34678553	          0.47210074	          8.54557334	         -7.92725958	          2.38144296	         13.13795771	         16.47081435	         -6.81562096	          0.38791582	         -1.49980425	        -23.33305009	        -14.68061681	         -1.36574113	         48.09512053	         16.44934682	        -13.83063912	         18.91654048	         48.23500380	          0.01164034	          0.01163967	          0.01000079	          0.01164189	          0.01164104	          0.01163538	          0.20074937	          0.05379229	          0.01002751	          0.01000220	          0.01355251	          0.04569351	          0.10819906	          0.21531588	          0.18385506	          0.10985686	          0.01002109	          0.01831195	          0.04032443	          0.01247437	          0.01410210	          0.08129110	          0.01576760	          0.01336757	          0.17514118	          0.01000214	          0.01000175	          0.01354828	          0.11872686	          0.09789299	          0.09172409	          0.01000010	          0.01000022	          0.01000005	          0.01000032	          0.01000335	          0.01000139	          0.28044731	          0.19445654	          0.12821319	          0.10059654	          0.34707586	          0.03485393	          0.18756333	          0.07148761	          0.04675923	          0.20149607	          0.16854000	          0.11548841	          0.01000950	          0.01000128	          0.01000078	          0.03182867	          0.07523895	          0.05012661	          0.04878858	          0.01001222	          0.01001570	          0.01000384	          0.33530946	          0.11815000	          0.01076073	          0.01359872	          0.01348088	          0.01000476	          0.18852944	          0.36044740	          0.01354797	          0.01356123	          0.04723840	          0.26480320	          0.01000338	          0.01000442	          0.01000394	          0.26803283	          0.30468503	          0.23186946	          0.25158123	          0.29887268	          0.36918270	          0.01392931	          0.08414074	          0.17908389	          0.01199735	          0.01216611	          0.01449240	          0.01409599	          0.01815057	          0.02660137	          0.02750188	          0.08519236	          0.01046839	
          1.00366336	         -2.90707136	         -1.19240904	          2.59927319	          1.29953154	          0.84616786	         -0.00095002	         26.95767362	          3.43114620	          2.38279178	        -11.21198146	          7.24968228	         -1.87669933	          0.24220814	        -17.14947812	          0.15229219	          8.46247325	         -9.97898570	          1.13093019	         13.42505754	         17.52339141	         -6.67121527	          0.90190074	         -1.53452514	        -23.81494050	        -14.71443783	         -1.34495756	         47.47487421	         15.91188825	        -13.84594835	         18.70884495	         49.45087140	          0.01000044	          0.01000061	          0.01141744	          0.01000196	          0.01000143	          0.01000142	          0.17246558	          0.04621911	          0.05812395	          0.01000642	          0.01166077	          0.03925668	          0.16925097	          0.18498786	          0.15795606	          0.11623009	          0.01000152	          0.01575621	          0.11449903	          0.01072262	          0.07590898	          0.06983991	          0.01354773	          0.01354651	          0.18377160	          0.01767769	          0.01007515	          0.01164007	          0.10199982	          0.08410130	          0.07880141	          0.01459507	          0.01576881	          0.01355220	          0.01322776	          0.01164617	          0.01355648	          0.24093482	          0.18954787	          0.13285381	          0.08642359	          0.32010914	          0.02994352	          0.16113781	          0.06141570	          0.04017130	          0.17310802	          0.14479451	          0.09921725	          0.01326149	          0.01001885	          0.01163875	          0.02734439	          0.06463882	          0.05282003	          0.21536850	          0.01164147	          0.01164911	          0.01169282	          0.28806786	          0.10151179	          0.01002791	          0.01168525	          0.01162851	          0.01163564	          0.16196740	          0.30966361	          0.01164001	          0.01165142	          0.04058300	          0.22749503	          0.02189589	          0.01186649	          0.01165086	          0.23026932	          0.26175761	          0.19920105	          0.21613603	          0.25676504	          0.31716892	          0.01196682	          0.07228675	          0.18718120	          0.01030718	          0.01045206	          0.01245075	          0.01211002	          0.03289569	          0.02285350	          0.02362751	          0.07318952	          0.01355531	
          1.01350319	         -2.89484394	         -1.51766436	          2.73911951	          1.31475778	          0.84555957	         -0.00076606	         26.29446783	          3.85780729	          2.50183136	        -11.73881268	          5.94799731	         -1.91384372	          0.24151924	        -16.80762338	         -0.16229274	          8.36096357	        -12.25534222	         -0.31070892	         13.66557704	         18.47688061	         -6.52799820	          1.43851269	         -1.55890737	        -24.07842253	        -14.76639909	         -1.14488256	         46.44936418	         15.32164593	        -13.85053150	         18.49424347	         50.55351785	          0.25413657	          0.27393101	          0.26859924	          0.23644436	          0.11791955	          0.01001571	          0.14816671	          0.06883913	          0.04993562	          0.01354966	          0.01002031	          0.03372613	          0.14540594	          0.15892709	          0.13570561	          0.12413606	          0.01000664	          0.01354008	          0.09837023	          0.21272416	          0.14832895	          0.09258443	          0.01163967	          0.01163903	          0.15788053	          0.01518811	          0.01000648	          0.01000077	          0.08763434	          0.07225399	          0.06770122	          0.01253878	          0.01354719	          0.01164283	          0.01136411	          0.01000552	          0.01164666	          0.42868830	          0.31248510	          0.14967043	          0.44831935	          0.46923464	          0.27825427	          0.18498686	          0.05276283	          0.03451155	          0.25847854	          0.12439470	          0.08523856	          0.01814437	          0.01000207	          0.01000128	          0.02349193	          0.05553218	          0.04538298	          0.18502656	          0.01000335	          0.01001397	          0.01004773	          0.24748824	          0.08726647	          0.01000499	          0.01004103	          0.01000322	          0.01000295	          0.13914780	          0.26603517	          0.01000056	          0.01001052	          0.03486528	          0.21494015	          0.01881137	          0.01019511	          0.01000974	          0.19782636	          0.22487827	          0.17113534	          0.18568450	          0.22058961	          0.27248303	          0.01028094	          0.11091997	          0.18306512	          0.01000151	          0.01000089	          0.01069771	          0.03880404	          0.07492805	          0.01963370	          0.02029862	          0.06287777	          0.01164554	
